<?xml version="1.0" encoding="UTF-8"?>
<svg width="262px" height="213px" viewBox="0 0 262 213" version="1.1" xmlns="http://www.w3.org/2000/svg" xmlns:xlink="http://www.w3.org/1999/xlink">
    <!-- Generator: Sketch 41.2 (35397) - http://www.bohemiancoding.com/sketch -->
    <title>Twitter_bird_logo_2012</title>
    <desc>Created with Sketch.</desc>
    <defs></defs>
    <g id="Page-1" stroke="none" stroke-width="1" fill="none" fill-rule="evenodd">
        <g id="Artboard" transform="translate(-1.000000, -1.000000)" fill="#FFFFFF">
            <g id="Twitter_bird_logo_2012" transform="translate(1.000000, 1.000000)">
                <g id="Group" transform="translate(0.261768, 0.122833)">
                    <path d="M82.1617084,212.780579 C180.56326,212.780579 234.375242,131.037031 234.375242,60.1519117 C234.375242,57.8301065 234.32808,55.5188298 234.224218,53.2179938 C244.669868,45.6460467 253.74878,36.1968617 260.909711,25.4402082 C251.324179,29.7125123 241.008903,32.5885572 230.187882,33.8854096 C241.232901,27.2442727 249.712444,16.7388124 253.712906,4.21511965 C243.37663,10.3594851 231.929991,14.8252511 219.742233,17.2362857 C209.979952,6.80952623 196.081586,0.287975975 180.692234,0.287975975 C151.149019,0.287975975 127.19175,24.3114614 127.19175,53.9238444 C127.19175,58.1333283 127.661095,62.2278757 128.578961,66.1553703 C84.1162646,63.9120026 44.6900194,42.5661869 18.3037737,10.1084673 C13.7093679,18.035928 11.0601559,27.2445359 11.0601559,37.0702915 C11.0601559,55.6812324 20.504815,72.1110118 34.8669266,81.7226871 C26.0898861,81.4507702 17.8448406,79.0348398 10.63841,75.0135535 C10.6305351,75.2386185 10.6305351,75.4580419 10.6305351,75.6985839 C10.6305351,101.677745 29.0709824,123.368282 53.5497466,128.283354 C49.0543899,129.512209 44.3247105,130.17112 39.4431325,130.17112 C36.0012657,130.17112 32.647948,129.831434 29.3886044,129.203723 C36.1993637,150.517865 55.9489735,166.028153 79.3637479,166.461577 C61.0536743,180.85233 37.9880215,189.423435 12.919513,189.423435 C8.60667958,189.423435 4.34608313,189.177454 0.158635972,188.680875 C23.8350329,203.898118 51.948512,212.777183 82.1645959,212.777183" id="Shape"></path>
                </g>
            </g>
        </g>
    </g>
</svg>