<?xml version="1.0" encoding="utf-8"?>
<!-- Generator: Adobe Illustrator 17.1.0, SVG Export Plug-In . SVG Version: 6.00 Build 0)  -->
<!DOCTYPE svg PUBLIC "-//W3C//DTD SVG 1.1//EN" "http://www.w3.org/Graphics/SVG/1.1/DTD/svg11.dtd">
<svg version="1.1" xmlns="http://www.w3.org/2000/svg" xmlns:xlink="http://www.w3.org/1999/xlink" x="0px" y="0px"
	 viewBox="0 0 102.6 90" enable-background="new 0 0 102.6 90" xml:space="preserve">
<g id="Calque_2" display="none">
	
		<rect x="-356.9" y="-1503.5" display="inline" fill="#3A1654" stroke="#FFFFFF" stroke-miterlimit="10" width="4499" height="6155"/>
</g>
<g id="Calque_1">
	<g>
		<g>
			<path fill="#FFFFFF" d="M35.9,86.6l-0.6-2.7c-0.2-0.7-3.9-18.2,0.1-27.8c0.3-0.6,1-0.9,1.6-0.7c0.6,0.3,0.9,1,0.7,1.6
				c-2.8,6.8-1.3,18.3-0.5,23.6l36.4-51.9c0.4-0.5,1.1-0.7,1.7-0.3c0.5,0.4,0.7,1.1,0.3,1.7L35.9,86.6z"/>
		</g>
		<g>
			<path fill="#FFFFFF" d="M16.8,71.6l0.2-2.5c0-0.7,1.2-17.8,12.3-27.1c0.5-0.4,1.3-0.4,1.7,0.1c0.4,0.5,0.4,1.3-0.1,1.7
				c-7.8,6.6-10.3,17.8-11.1,22.9l54.2-38.2c0.5-0.4,1.3-0.3,1.7,0.3c0.4,0.5,0.3,1.3-0.3,1.7L16.8,71.6z"/>
		</g>
		<g>
			<g>
				<path fill="#FFFFFF" d="M3.6,52.1l1.1-2.4c0.3-0.7,8.3-17.6,20.2-21.4c0.6-0.2,1.3,0.1,1.5,0.8c0.2,0.6-0.1,1.3-0.8,1.5
					c-8.3,2.6-14.8,12.8-17.4,17.6l66-19.9c0.6-0.2,1.3,0.2,1.5,0.8c0.2,0.6-0.2,1.3-0.8,1.5L3.6,52.1z"/>
			</g>
			<g>
				<path fill="#FFFFFF" d="M29.9,44.1c-0.2,0-0.5-0.1-0.7-0.2L16.9,35c-0.5-0.4-0.7-1.1-0.3-1.7s1.1-0.7,1.7-0.3l12.4,8.8
					c0.5,0.4,0.7,1.1,0.3,1.7C30.7,43.9,30.3,44.1,29.9,44.1z"/>
			</g>
		</g>
		<g>
			<g>
				<path fill="#FFFFFF" d="M74.5,30C74.5,30,74.5,30,74.5,30L0,30.1l1.9-1.9c0.5-0.5,12.4-13.2,24.6-14.9c0.6-0.1,1.3,0.4,1.4,1.1
					c0.1,0.7-0.4,1.3-1,1.4C18.3,17,9.5,24.4,5.6,28l68.8,0.2c0.7,0,1.2,0.2,1.2,0.9C75.7,29.8,75.2,30,74.5,30z"/>
			</g>
			<g>
				<path fill="#FFFFFF" d="M28,30.5c-0.4,0-0.7-0.2-1-0.5L17.8,18c-0.4-0.5-0.3-1.3,0.2-1.7c0.5-0.4,1.3-0.3,1.7,0.2l9.2,12.1
					c0.4,0.5,0.3,1.3-0.2,1.7C28.5,30.4,28.2,30.5,28,30.5z"/>
			</g>
		</g>
		<g>
			<g>
				<path fill="#FFFFFF" d="M73.6,31.1L73.1,31L4.5,9l2.7-1.3C7.7,7.5,19,2.2,29.6,2.2c2.5,0,4.9,0.3,6.9,0.9
					C48,6.6,55.9,11.7,74.8,28c0.6,0.5,0.8,1.2,0.5,1.9C75,30.6,74.3,31.1,73.6,31.1z M11.2,8.6l59.6,19.1
					c-18-15.4-25.1-19.3-35-22.4c-1.8-0.5-3.9-0.8-6.2-0.8C22.6,4.6,15.2,7.1,11.2,8.6z"/>
			</g>
			<g>
				<path fill="#FFFFFF" d="M31.3,17.3c-0.5,0-1-0.3-1.1-0.8L25.6,3.8c-0.2-0.6,0.1-1.3,0.7-1.5c0.6-0.2,1.3,0.1,1.5,0.7l4.6,12.7
					c0.2,0.6-0.1,1.3-0.7,1.5C31.6,17.2,31.5,17.3,31.3,17.3z"/>
			</g>
		</g>
		<g>
			<path fill="#FFFFFF" d="M36.5,57.7c-0.2,0-0.4,0-0.5-0.1l-12.7-6.1c-0.6-0.3-0.9-1-0.6-1.6c0.3-0.6,1-0.8,1.6-0.6L37,55.4
				c0.6,0.3,0.9,1,0.6,1.6C37.3,57.5,36.9,57.7,36.5,57.7z"/>
		</g>
		<g>
			<path fill="#FFFFFF" d="M49.6,66h-14c-0.6,0-1-0.4-1-1s0.4-1,1-1h14c0.6,0,1,0.4,1,1S50.2,66,49.6,66z"/>
		</g>
		<g>
			<path fill="#FFFFFF" d="M69,67.6c-4.4,0-8.1-3.6-8.1-8.1s3.6-8.1,8.1-8.1s8.1,3.6,8.1,8.1S73.5,67.6,69,67.6z M69,55.1
				c-2.5,0-4.5,2-4.5,4.5s2,4.5,4.5,4.5s4.5-2,4.5-4.5S71.5,55.1,69,55.1z"/>
		</g>
		<g>
			<path fill="#FFFFFF" d="M77.1,50.5c-0.3,0-0.6-0.1-0.9-0.4c-0.4-0.5-0.4-1.2,0.1-1.7L89.9,36l-6.6-3.3L71.8,48.1
				c-0.4,0.5-1.1,0.6-1.7,0.2c-0.5-0.4-0.6-1.1-0.2-1.7l12.7-17l11.5,5.8L77.9,50.2C77.7,50.4,77.4,50.5,77.1,50.5z"/>
		</g>
		<g>
			<path fill="#FFFFFF" d="M70.6,90l-2.2-1.5C62.3,82.9,58.1,69.2,58,68.6c-0.1-0.5,0-1.1,0.6-1.2c0.5-0.1,1.5,0.2,1.7,0.7
				c0,0.1,2.4,11.1,8.4,17.1V73.8c0-0.6,0.4-1,1-1s1,0.4,1,1V90z"/>
		</g>
		<g>
			<path fill="#FFFFFF" d="M95.2,83.4l-19.8-7.9l14-18.8L87.6,55l-4.9,4.4c-0.4,0.4-1,0.3-1.4-0.1c-0.4-0.4-0.3-1,0.1-1.4l6.3-5.6
				l4.4,4.2L78.5,74.5l15.7,6.3l2-2.9l-3.7-4.5V64h6.5c-0.2-6-1.2-14.2-6.4-15.9l-0.2-0.3v-3.7l-10.5,8.9c-0.4,0.4-1.3,0.3-1.7-0.1
				c-0.4-0.4,0.1-1,0.5-1.4l13.7-11.8v6.7c6,3.1,8,15.8,8,18.4V66h-8v6.6l4.1,5L95.2,83.4z"/>
		</g>
	</g>
</g>
</svg>
