<?xml version="1.0" encoding="utf-8"?>
<!-- Generator: Adobe Illustrator 17.1.0, SVG Export Plug-In . SVG Version: 6.00 Build 0)  -->
<!DOCTYPE svg PUBLIC "-//W3C//DTD SVG 1.1//EN" "http://www.w3.org/Graphics/SVG/1.1/DTD/svg11.dtd">
<svg version="1.1" xmlns="http://www.w3.org/2000/svg" xmlns:xlink="http://www.w3.org/1999/xlink" x="0px" y="0px"
	 viewBox="0 0 98.7 78.8" enable-background="new 0 0 98.7 78.8" xml:space="preserve">
<g id="Calque_2" display="none">
	<rect x="-173.5" y="-1510" display="inline" fill="#3A1654" stroke="#FFFFFF" stroke-miterlimit="10" width="4499" height="6155"/>
</g>
<g id="Calque_1">
	<g>
		<g>
			<g>
				<path fill="#FFFFFF" d="M25.3,80.1L14.6,70l0.5-1.2c4.8-10.4,15.2-19.2,25.4-27.8c10.2-8.6,19.8-16.7,22.8-25.5l-3.6-4.1
					l12.6-12L73.6,1c0.1,0.1,5.7,7.5,16.4,11.1c1,0.3,3.2,0.7,4.9,0.9c0.8,0.1,1.6,0.2,2.2,0.3l1.6,0.3l-0.2,1.7
					c-0.9,9-9.9,18.4-21.3,22.4l-1.7,0.6L75,36.5c-0.3-0.8-0.5-1.7-0.8-2.7c-0.3-1.3-0.7-2.7-1-3.4c-0.9-1.9-1.7-3.4-2.4-4.6
					c-4.4,8.4-12,14.7-20,21.3c-10,8.2-20.3,16.8-24.5,30.2L25.3,80.1z M19,69.2l4.7,4.4c5-12.8,15-21.1,24.7-29.2
					c8.5-7,16.5-13.7,20.3-22.8l1.1-2.7l1.9,2.2c0.1,0.1,2.4,2.7,4.7,7.8c0.4,1,0.8,2.4,1.2,4c0.1,0.2,0.1,0.5,0.2,0.7
					c8.4-3.5,15.2-10.4,16.8-17c-0.1,0-0.2,0-0.3,0c-2-0.3-4.2-0.6-5.5-1.1C80,12.6,74.4,7.3,72,4.7l-7.3,6.9l2.7,3l-0.3,0.9
					c-2.9,10.3-13.3,19-24.3,28.2C33.4,51.8,23.7,60,19,69.2z"/>
			</g>
			<g>
				<path fill="#FFFFFF" d="M74.2,29.6c-0.5,0-0.9-0.3-1.1-0.8c-0.2-0.6,0.1-1.3,0.7-1.5c8.3-3.1,12.1-5.7,14.5-13.8
					c0.2-0.6,0.9-1,1.5-0.8c0.6,0.2,1,0.9,0.8,1.5c-2.7,9-7.3,12.1-16,15.4C74.4,29.6,74.3,29.6,74.2,29.6z"/>
			</g>
			<g>
				<path fill="#FFFFFF" d="M70.4,24.1c-0.6,0-1.1-0.3-1.5-0.7c-0.8-1-1.5-2.1-2.2-3.2c-0.8-1.1-1.6-2.4-2.7-4
					c-0.6-0.8-0.4-1.9,0.4-2.5c0.8-0.6,1.9-0.4,2.5,0.4c1.2,1.6,2,2.9,2.8,4.1c0.7,1.1,1.4,2.1,2.1,3.1c0.6,0.8,0.4,1.9-0.4,2.5
					C71.1,24,70.7,24.1,70.4,24.1z"/>
			</g>
		</g>
		<g>
			<g>
				<path fill="none" stroke="#FFFFFF" stroke-width="3.6" stroke-linecap="round" stroke-miterlimit="10" d="M49.4,45.9"/>
			</g>
			<g>
				<path fill="#FFFFFF" d="M43,42.4c-0.4,0-0.8-0.1-1.2-0.4c-4.9-4.3-10.3-9.5-13.8-16.1c-0.7,1.1-1.6,2.6-2.5,4.6
					c-0.3,0.7-0.7,2.1-1,3.4c-0.3,1-0.5,2-0.8,2.7l-0.6,1.7l-1.7-0.6c-11.4-4-20.4-13.4-21.3-22.4L0,13.7l1.6-0.3
					C2.2,13.3,3,13.1,3.8,13c1.7-0.3,3.9-0.6,4.9-0.9C19.4,8.5,25.1,1.1,25.1,1l1.2-1.6l12.6,12l-3.6,4.1c2.4,7,9,13.5,15.2,19
					c0.7,0.7,0.8,1.8,0.2,2.5c-0.7,0.7-1.8,0.8-2.5,0.2c-6.9-6.1-14.2-13.4-16.6-21.6l-0.3-0.9l2.7-3l-7.3-6.9
					c-2.4,2.6-8,7.9-16.8,10.8c-1.3,0.4-3.5,0.8-5.5,1.1c-0.1,0-0.2,0-0.3,0c1.6,6.6,8.4,13.5,16.8,17c0.1-0.2,0.1-0.5,0.2-0.7
					c0.4-1.5,0.8-3,1.2-4c2.3-5.1,4.6-7.7,4.7-7.8l1.9-2.2l1.1,2.7c3,7.2,8.8,12.9,14.1,17.6c0.7,0.7,0.8,1.8,0.2,2.5
					C44,42.2,43.5,42.4,43,42.4z"/>
			</g>
			<g>
				<path fill="#FFFFFF" d="M73.4,80.1l-0.9-2.7c-4.2-13.4-14.4-21.8-24.3-30c-0.8-0.6-0.9-1.8-0.2-2.5c0.6-0.8,1.8-0.9,2.5-0.2
					c9.2,7.6,19.5,16.1,24.5,29l4.7-4.4C75.1,60,65.3,51.8,55.9,43.8l-1.8-1.5c-0.8-0.6-0.9-1.8-0.2-2.5c0.6-0.8,1.8-0.9,2.5-0.2
					l1.7,1.5c10.1,8.5,20.6,17.3,25.4,27.8l0.5,1.2L73.4,80.1z"/>
			</g>
			<g>
				<path fill="#FFFFFF" d="M24.6,29.6c-0.1,0-0.3,0-0.4-0.1c-8.7-3.3-13.3-6.4-16-15.4c-0.2-0.6,0.2-1.3,0.8-1.5
					c0.6-0.2,1.3,0.2,1.5,0.8c2.4,8.1,6.3,10.7,14.5,13.8c0.6,0.2,0.9,0.9,0.7,1.5C25.5,29.3,25.1,29.6,24.6,29.6z"/>
			</g>
			<g>
				<path fill="#FFFFFF" d="M28.4,24.1c-0.4,0-0.7-0.1-1.1-0.4c-0.8-0.6-1-1.7-0.4-2.5c0.7-1,1.4-2,2.1-3.1c0.8-1.2,1.7-2.5,2.8-4.1
					c0.6-0.8,1.7-1,2.5-0.4c0.8,0.6,1,1.7,0.4,2.5c-1.1,1.6-2,2.8-2.7,4c-0.8,1.2-1.5,2.2-2.2,3.2C29.5,23.9,28.9,24.1,28.4,24.1z"
					/>
			</g>
		</g>
	</g>
</g>
</svg>
