<?xml version="1.0" encoding="utf-8"?>
<!-- Generator: Adobe Illustrator 17.1.0, SVG Export Plug-In . SVG Version: 6.00 Build 0)  -->
<!DOCTYPE svg PUBLIC "-//W3C//DTD SVG 1.1//EN" "http://www.w3.org/Graphics/SVG/1.1/DTD/svg11.dtd">
<svg version="1.1" xmlns="http://www.w3.org/2000/svg" xmlns:xlink="http://www.w3.org/1999/xlink" x="0px" y="0px"
	 viewBox="0 0 69.5 82.3" enable-background="new 0 0 69.5 82.3" xml:space="preserve">
<g id="Calque_2" display="none">
	
		<rect x="-927.3" y="-1508.9" display="inline" fill="#3A1654" stroke="#FFFFFF" stroke-miterlimit="10" width="4499" height="6155"/>
</g>
<g id="Calque_1">
	<g>
		<g>
			<path fill="#FFFFFF" d="M10.5,81.6C4,81.6,0,74.7,0,69.9c0-4.6,3.4-11.6,8.5-11.7c0.3,0,0.7,0,1,0l-2.4-1.5
				c-2.5-2.1-2.2-4.8-0.8-6.5c1.4-1.6,4-2.2,6.3-0.3l8.7,5.2c0.6,0.3,0.8,1.1,0.4,1.6c-0.3,0.6-1.1,0.8-1.6,0.4l-8.8-5.3
				c-1.4-1.2-2.5-0.8-3.1-0.1c-0.7,0.8-0.8,2,0.4,3l9.5,5.9l-4.4-0.1c0,0-2.9-0.1-5.2,0c-3.2,0.1-6.2,5.3-6.2,9.3
				c0,3.8,3.1,9.3,8.1,9.3l6.7,0c13,0,40,0,42.9,0c1.6,0,3.1-0.7,4.3-2.1c1.9-2.1,2.8-5.1,2.6-6.4c-0.5-4.8-1.5-9.9-7.3-9.9
				c-6.3,0-34.2-0.1-34.2-0.1l0-2.4c0,0,27.9,0.1,34.2,0.1c8.4,0,9.3,8.4,9.7,12c0.2,2.1-0.8,5.2-3.2,7.9c-1.7,1.9-3.8,2.4-6.1,2.4
				c0,0,0,0-0.1,0c-2.8,0-29.9,0.5-42.8,0.5L10.5,81.6z"/>
		</g>
		<g>
			<path fill="#FFFFFF" d="M30.9,66.8c-5.6,0-11.7-0.3-14.5-0.7c-0.5-0.1-0.8-0.5-0.8-1c0.1-0.5,0.5-0.8,1-0.8c7,1,27.4,0.9,29-0.7
				c0.1-0.3,0-0.7-0.2-1.1c-0.7-1-2.8-2.1-6.5-2.1c-0.5,0-0.9-0.4-0.9-0.9s0.4-0.9,0.9-0.9c3.7,0,6.7,1.1,8,2.9
				c0.6,0.9,0.8,1.9,0.4,2.8c-0.3,0.7-0.9,2.3-13.8,2.5C32.6,66.8,31.7,66.8,30.9,66.8z"/>
		</g>
		<g>
			<path fill="#FFFFFF" d="M16.5,70.9c-0.5,0-0.9-0.4-0.9-0.9s0.4-0.9,0.9-0.9c35.6,0,39.8-2.8,39.8-5c0-0.5-0.3-1.1-0.8-1.6
				c-0.7-0.7-2.6-2.2-7-2.2c-0.5,0-0.9-0.4-0.9-0.9s0.4-0.9,0.9-0.9c4.9,0,7.3,1.7,8.3,2.7c0.9,0.9,1.3,1.9,1.3,2.9
				C58.1,67,58,70.9,16.5,70.9z"/>
		</g>
		<g>
			<path fill="#FFFFFF" d="M40.5,74.8c-0.8,0-1.6,0-2.4,0c-0.5,0-0.9-0.6-0.9-1.1c0-0.5,0.5-1.1,0.9-1.1l0,0c0,0,0,0,0,0
				c10.1,0,25.3-2.6,27.5-8.4c0.2-0.5,0.7-0.6,1.2-0.4c0.5,0.2,0.7,0.7,0.5,1.2c-1.2,3.3-5.5,5.8-10.8,7.3c5.4-0.5,9.7-1.2,11.3-2.1
				c0.4-0.3,1-0.1,1.2,0.3c0.3,0.4,0.1,1-0.3,1.2C64.9,74,50.3,74.8,40.5,74.8z"/>
		</g>
		<g>
			<path fill="#FFFFFF" d="M34.7,80.8c-0.2,0-0.4-0.1-0.5-0.2c-3-2.2-9.9-4.6-17.7-4.6c-0.5,0-0.9-0.4-0.9-0.9s0.4-0.9,0.9-0.9
				c8.3,0,15.4,2.5,18.8,5c0.4,0.3,0.5,0.9,0.2,1.3C35.3,80.7,35,80.8,34.7,80.8z"/>
		</g>
		<g>
			<path fill="#FFFFFF" d="M42.2,53.9l1.1-2.2c0.1-0.2,2.7-5.2,0.1-10.7l-6,5.2l-0.7-1.3c-0.1-0.1-1.8-3.2-3.8-10
				c-2.2,2.4-6.4,7.9-5.7,15.9l0.2,1.8l-1.7-0.5c-0.1,0-11.6-3.8-9.9-15.1c0.7-4.8,4-8.5,7.5-12.4c4.9-5.6,10-11.3,8.4-21L31.1,0
				l2.6,2.5C34.1,2.9,42,10.6,44,22.2c2.2-3,4.2-6,4.3-6.7l0.5-2.8l1.7,2.2c1.7,2.4,7.6,13.7,4.8,25.4C52.4,52,45,53.4,44.6,53.5
				L42.2,53.9z M44.1,37.3l0.7,1.2c2.7,4.5,2.3,8.9,1.6,11.6c2-1.3,4.9-4.1,6.4-10.4c2.1-8.8-1.2-17.6-3.3-21.6
				c-1.5,2.6-4.1,6.1-5.5,7.9l-1.9,2.5l-0.2-3.2c-0.6-8.2-4.8-14.9-7.5-18.4c0.1,8.6-4.9,14.2-9.3,19.2c-3.2,3.6-6.3,7.1-6.9,11.2
				c-1.1,7,3.9,10.4,6.6,11.8c-0.1-10.9,7.7-17.1,8-17.3l1.4-1.1l0.5,1.7c1.4,5.1,2.7,8.3,3.5,10L44.1,37.3z"/>
		</g>
	</g>
</g>
</svg>
