<?xml version="1.0" encoding="utf-8"?>
<!-- Generator: Adobe Illustrator 17.1.0, SVG Export Plug-In . SVG Version: 6.00 Build 0)  -->
<!DOCTYPE svg PUBLIC "-//W3C//DTD SVG 1.1//EN" "http://www.w3.org/Graphics/SVG/1.1/DTD/svg11.dtd">
<svg version="1.1" xmlns="http://www.w3.org/2000/svg" xmlns:xlink="http://www.w3.org/1999/xlink" x="0px" y="0px"
	 viewBox="0 0 77.6 108.4" enable-background="new 0 0 77.6 108.4" xml:space="preserve">
<g id="Calque_2" display="none">
	<rect x="1.2" y="-1495.4" display="inline" fill="#3A1654" stroke="#FFFFFF" stroke-miterlimit="10" width="4499" height="6155"/>
</g>
<g id="Calque_1">
	<g>
		<g>
			<path fill="#FFFFFF" d="M1.8,108.6c-0.3,0-0.6-0.1-0.8-0.2c-0.9-0.5-1.2-1.5-0.8-2.4l54-105c0.5-0.9,1.5-1.2,2.4-0.8
				c0.9,0.5,1.2,1.5,0.8,2.4l-54,105C3.1,108.2,2.5,108.6,1.8,108.6z"/>
		</g>
		<g>
			<path fill="#FFFFFF" d="M76.8,108.6c-0.7,0-1.3-0.4-1.6-1l-54-105c-0.5-0.9-0.1-2,0.8-2.4c0.9-0.5,2-0.1,2.4,0.8l54,105
				c0.5,0.9,0.1,2-0.8,2.4C77.4,108.5,77.1,108.6,76.8,108.6z"/>
		</g>
		<g>
			<path fill="#FFFFFF" d="M57.6,108.6c-0.7,0-1.3-0.4-1.6-1L28.1,53.4c-0.5-0.9-0.1-2,0.8-2.4c0.9-0.5,2-0.1,2.4,0.8L59.2,106
				c0.5,0.9,0.1,2-0.8,2.4C58.2,108.5,57.9,108.6,57.6,108.6z"/>
		</g>
		<g>
			<path fill="#FFFFFF" d="M21,108.6c-0.3,0-0.6-0.1-0.8-0.2c-0.9-0.5-1.2-1.5-0.8-2.4l18.3-35.6c0.5-0.9,1.5-1.2,2.4-0.8
				c0.9,0.5,1.2,1.5,0.8,2.4l-18.3,35.6C22.3,108.2,21.7,108.6,21,108.6z"/>
		</g>
		<g>
			<path fill="#FFFFFF" d="M13,108c-0.2,0-0.4,0-0.6-0.1c-0.6-0.3-0.8-1-0.5-1.6l22.6-42.8c0.3-0.6,1-0.8,1.6-0.5s0.8,1,0.5,1.6
				l-22.6,42.8C13.9,107.8,13.4,108,13,108z"/>
		</g>
		<g>
			<path fill="#FFFFFF" d="M42.7,41.7c-0.2,0-0.4,0-0.6-0.1c-0.6-0.3-0.8-1-0.5-1.6L57.5,9.7c0.3-0.6,1-0.8,1.6-0.5
				c0.6,0.3,0.8,1,0.5,1.6L43.8,41.1C43.6,41.5,43.1,41.7,42.7,41.7z"/>
		</g>
		<g>
			<path fill="#FFFFFF" d="M35.9,41.7c-0.4,0-0.8-0.2-1-0.6l-14-24.4c-0.3-0.6-0.1-1.3,0.4-1.6c0.6-0.3,1.3-0.1,1.6,0.4l14,24.4
				c0.3,0.6,0.1,1.3-0.4,1.6C36.3,41.7,36.1,41.7,35.9,41.7z"/>
		</g>
	</g>
</g>
</svg>
