<?xml version="1.0" encoding="utf-8"?>
<!-- Generator: Adobe Illustrator 17.1.0, SVG Export Plug-In . SVG Version: 6.00 Build 0)  -->
<!DOCTYPE svg PUBLIC "-//W3C//DTD SVG 1.1//EN" "http://www.w3.org/Graphics/SVG/1.1/DTD/svg11.dtd">
<svg version="1.1" xmlns="http://www.w3.org/2000/svg" xmlns:xlink="http://www.w3.org/1999/xlink" x="0px" y="0px"
	 viewBox="0 0 83.5 79.5" enable-background="new 0 0 83.5 79.5" xml:space="preserve">
<g id="Calque_2" display="none">
	
		<rect x="-735.5" y="-1509.3" display="inline" fill="#3A1654" stroke="#FFFFFF" stroke-miterlimit="10" width="4499" height="6155"/>
</g>
<g id="Calque_1">
	<g>
		<g>
			<g>
				<path fill="#FFFFFF" d="M3.9,80.1L10,63.6l6.8,1.9l40-40l1.7,1.7l-40,40l1.7,6.7L3.9,80.1z M11.5,66.5L8,75.9l9.3-3.6l-1.2-4.6
					L11.5,66.5z"/>
			</g>
		</g>
		<g>
			<g>
				<path fill="#FFFFFF" d="M79.5,80.1l-16.3-6.2l1.7-6.7l-40-40l1.7-1.7l40,40l6.8-1.9L79.5,80.1z M66.1,72.4l9.3,3.6L72,66.5
					l-4.7,1.3L66.1,72.4z"/>
			</g>
			<g>
				<g>
					<path fill="#FFFFFF" d="M21.8,22.5l-11.1-1.2c-0.7-0.1-1.1-0.7-1.1-1.3s0.7-1.1,1.3-1.1l8.1,0.9l-0.8-8.3
						c-0.1-0.7,0.4-1.2,1.1-1.3c0.7-0.1,1.2,0.4,1.3,1.1L21.8,22.5z"/>
				</g>
				<g>
					<path fill="#FFFFFF" d="M28.7,29.1l-12.3-1L0,11.8l12.5,1.4L11.3,0.6l16.2,16.2L28.7,29.1z M17.9,24.6l6.7,0.6l-0.6-6.7
						l-8.2-8.2l0.7,7l-6.7-0.7L17.9,24.6z"/>
				</g>
			</g>
			<g>
				<g>
					<path fill="#FFFFFF" d="M61.6,22.5l1.1-11.2c0.1-0.7,0.6-1.1,1.3-1.1c0.7,0.1,1.1,0.6,1.1,1.3l-0.8,8.3l8.1-0.9
						c0.7-0.1,1.3,0.4,1.3,1.1c0.1,0.7-0.4,1.3-1.1,1.3L61.6,22.5z"/>
				</g>
				<g>
					<path fill="#FFFFFF" d="M54.8,29.1l1.1-12.3L72.1,0.6L71,13.2l12.5-1.4L67.1,28.1L54.8,29.1z M59.4,18.5l-0.6,6.7l6.7-0.6
						l8.1-8.1L67,17.2l0.7-7L59.4,18.5z"/>
				</g>
			</g>
		</g>
	</g>
</g>
</svg>
