<?xml version="1.0" encoding="utf-8"?>
<!-- Generator: Adobe Illustrator 17.1.0, SVG Export Plug-In . SVG Version: 6.00 Build 0)  -->
<!DOCTYPE svg PUBLIC "-//W3C//DTD SVG 1.1//EN" "http://www.w3.org/Graphics/SVG/1.1/DTD/svg11.dtd">
<svg version="1.1" xmlns="http://www.w3.org/2000/svg" xmlns:xlink="http://www.w3.org/1999/xlink" x="0px" y="0px"
	 viewBox="0 0 74.3 91.7" enable-background="new 0 0 74.3 91.7" xml:space="preserve">
<g id="Calque_2" display="none">
	<rect x="-555" y="-1504.2" display="inline" fill="#3A1654" stroke="#FFFFFF" stroke-miterlimit="10" width="4499" height="6155"/>
</g>
<g id="Calque_1">
	<g>
		<g>
			<path fill="#FFFFFF" d="M46.1,91.7c-2.9,0-5.6-3.5-5.6-8.6V42.9L17.9,5.5c-0.6-0.9-0.4-2.2,0.5-2.7c0.9-0.6,2.1-0.3,2.7,0.7
				l22.9,37.8c0.2,0.3,0.6,0.7,0.6,1v40.8c0,3.2,1.2,4.5,1.6,4.6c1.1,0,2,0.9,2,2S47.2,91.7,46.1,91.7z"/>
		</g>
		<g>
			<path fill="#FFFFFF" d="M48.5,82.7c-1.1,0-2-0.9-2-2V41.3L23,2.3c-0.6-1-0.4-2.2,0.5-2.7c0.9-0.6,2.1-0.2,2.6,0.7l23.7,39.5
				c0.2,0.3,0.6,0.7,0.6,1v39.9C50.5,81.8,49.6,82.7,48.5,82.7z"/>
		</g>
		<g>
			<path fill="#FFFFFF" d="M49.6,34c-0.3,0-0.6-0.1-0.9-0.2c-0.9-0.5-1.2-1.6-0.7-2.5L65.3,0.9c0.5-0.9,1.6-1.2,2.5-0.7
				c0.9,0.5,1.2,1.6,0.7,2.5L51.1,33.1C50.8,33.7,50.2,34,49.6,34z"/>
		</g>
		<g>
			<path fill="#FFFFFF" d="M53.2,40.1c-0.3,0-0.6-0.1-0.9-0.2c-0.9-0.5-1.2-1.6-0.7-2.5L70.9,3.6c0.5-0.9,1.6-1.2,2.5-0.7
				s1.2,1.6,0.7,2.5L54.7,39.2C54.4,39.8,53.8,40.1,53.2,40.1z"/>
		</g>
		<g>
			<path fill="#FFFFFF" d="M18.3,12.9c-0.6,0-1.2-0.3-1.5-0.8c-0.6-0.8-0.3-1.9,0.5-2.5L29,1.8c0.8-0.5,1.9-0.3,2.5,0.5
				C32,3.1,31.8,4.2,31,4.8l-11.7,7.8C19,12.8,18.6,12.9,18.3,12.9z"/>
		</g>
		<g>
			<path fill="#FFFFFF" d="M73.2,12.9c-0.3,0-0.7-0.1-1-0.3L60.5,4.8c-0.8-0.6-1.1-1.7-0.5-2.5c0.6-0.8,1.7-1,2.5-0.5l11.7,7.8
				c0.8,0.6,1.1,1.7,0.5,2.5C74.3,12.6,73.7,12.9,73.2,12.9z"/>
		</g>
		<g>
			<path fill="#FFFFFF" d="M25,87.3c-0.6,0-1.2-0.7-1.2-1.3c0-0.7,0.5-1.3,1.2-1.3c3.9-0.2,7.6-1.1,10.8-2.6c0.6-0.3,1.3,0,1.6,0.6
				c0.3,0.6,0,1.5-0.6,1.8C33.2,86.1,29.3,87.3,25,87.3C25,87.3,25,87.3,25,87.3z"/>
		</g>
		<g>
			<path fill="#FFFFFF" d="M23.6,82.5c-6.3,0-14.1-1.6-17.4-6.1c-1.6-2.2-2-4.8-1-7.6c0.3-0.9,1.4-1.4,2.3-1.1
				c0.9,0.3,1.4,1.4,1.1,2.3c-0.6,1.6-0.4,3,0.5,4.3c2.2,3,8.7,4.9,15.8,4.6c1.1,0,1.8,0.7,1.9,1.7c0,1-0.7,1.8-1.7,1.9
				C24.6,82.5,24.1,82.5,23.6,82.5z"/>
		</g>
		<g>
			<path fill="#FFFFFF" d="M23.6,87c-8.2,0-16.3-2.9-20.5-7.5c-2.3-2.5-3.4-5.4-3.1-8.3c0.1-0.8,0.3-1.7,0.6-2.5
				c3.1-8,11.4-10.9,18.7-13.5c4-1.4,7.8-2.8,9.7-4.7c4.7-4.7,6-9,5.7-17.6c0-0.7,0.5-1.2,1.2-1.2c0.7,0,1.2,0.5,1.2,1.2
				c0.4,9.3-1.3,14.2-6.4,19.4c-2.3,2.3-6.3,3.7-10.6,5.3c-6.8,2.4-14.6,5.2-17.3,12.1c-0.2,0.6-0.4,1.3-0.5,1.9
				c-0.3,2.2,0.6,4.4,2.5,6.4c4,4.3,12.1,7,20,6.7c0.7,0,1.2,0.5,1.2,1.1c0,0.7-0.5,1.2-1.1,1.2C24.6,87,24.1,87,23.6,87z"/>
		</g>
		<g>
			<path fill="#FFFFFF" d="M34,19.4c-0.8,0-1.6-0.6-1.8-1.4C30.8,11,29,5.8,28.3,4c-0.4-0.9,0.1-2,1-2.3c0.9-0.4,2,0.1,2.3,1
				c0.8,2,2.6,7.4,4.2,14.6c0.2,1-0.4,1.9-1.4,2.1C34.3,19.4,34.1,19.4,34,19.4z"/>
		</g>
		<g>
			<path fill="#FFFFFF" d="M52.2,80.1c-0.4,0-0.7-0.2-1-0.5c-0.4-0.5-0.3-1.3,0.3-1.7c8.3-6,11.7-11,10.9-26.3
				c-0.1-1.4-0.3-3.8-0.6-6.8c-0.5-5.3-1.2-12.6-1.7-20.7c0-0.7,0.5-1.2,1.1-1.3c0.7,0,1.2,0.5,1.3,1.1c0.5,8.1,1.2,15.3,1.7,20.6
				c0.3,3.1,0.5,5.5,0.6,6.9c0.8,16.3-3,21.9-11.9,28.3C52.7,80,52.4,80.1,52.2,80.1z"/>
		</g>
		<g>
			<path fill="#FFFFFF" d="M60.9,15.3c-1,0-1.8-1.4-1.8-2.4c-0.1-6.7,0.3-9,0.7-10c0.4-0.9,1.4-1.5,2.3-1.2c0.9,0.4,1.4,1.3,1,2.3
				C63,4.5,62.6,6.7,62.7,13C62.7,14,61.9,15.3,60.9,15.3C60.9,15.3,60.9,15.3,60.9,15.3z"/>
		</g>
	</g>
</g>
</svg>
