<?xml version="1.0" encoding="UTF-8"?>
<svg width="22px" height="22px" viewBox="0 0 22 22" version="1.1" xmlns="http://www.w3.org/2000/svg" xmlns:xlink="http://www.w3.org/1999/xlink">
    <!-- Generator: Sketch 43.1 (39012) - http://www.bohemiancoding.com/sketch -->
    <title>icon_dislike</title>
    <desc>Created with Sketch.</desc>
    <defs></defs>
    <g id="Symbols" stroke="none" stroke-width="1" fill="none" fill-rule="evenodd">
        <g id="Player_Desktop" transform="translate(-253.000000, -39.000000)" fill="#FFFFFF">
            <g id="Group-8" transform="translate(0.000000, 16.000000)">
                <g id="Group-5">
                    <g id="Player-Copy-2" transform="translate(0.000000, 4.000000)">
                        <g id="Player">
                            <g id="Player-Copy">
                                <path d="M259.285185,27.9045169 L254.978997,27.9064924 C254.978997,27.9064924 254.918207,27.9000721 254.818373,27.9000721 C254.498115,27.9000721 253.894665,27.9687202 253.458264,28.4314773 C253.121202,28.7895337 252.967992,29.293776 253.005553,29.9298818 C253.110823,31.7216458 253.606037,38.7395525 253.609497,38.7844948 C253.609497,39.5504887 254.072587,41 255.825605,41 L259.441361,40.9995061 C259.44828,41 259.464589,41 259.47052,41 C259.855522,41 260.5079,40.7426932 260.5079,39.7771754 L260.5079,29.485398 C260.542002,29.309086 260.61663,28.7485424 260.287475,28.3297398 C260.134265,28.1356486 259.836741,27.9045169 259.285185,27.9045169 L259.285185,27.9045169 Z M259.77694,29.358967 C259.770021,29.3871176 259.766561,29.4167499 259.766561,29.4458883 L259.766561,39.7771754 C259.766561,40.195978 259.580732,40.2591935 259.47052,40.2591935 L259.47052,40.6295968 L259.460636,40.2591935 L255.825605,40.2591935 C254.405201,40.2591935 254.352318,38.9336438 254.350341,38.7583196 C254.345399,38.687696 253.851173,31.6742342 253.746398,29.8864212 C253.721192,29.4616921 253.806199,29.1431454 253.997958,28.9396705 C254.251991,28.6695231 254.656267,28.6408786 254.818373,28.6408786 C254.86483,28.6408786 254.894978,28.6433479 254.939459,28.6453234 L259.285185,28.6453234 C259.488806,28.6453234 259.628672,28.692735 259.703795,28.7865705 C259.833282,28.9495479 259.79918,29.263156 259.77694,29.358967 L259.77694,29.358967 Z M274.012124,30.189658 C273.961219,30.1669399 273.909325,30.1466912 273.857926,30.1269364 C274.235514,29.8903722 274.610631,29.4952754 274.610631,28.8142273 C274.610631,28.3490008 274.469283,27.9800792 274.190045,27.7183276 C273.760563,27.3118717 273.15909,27.2807579 272.985123,27.2807579 L269.698522,27.2807579 C269.644651,27.2807579 269.52752,27.2219872 269.51121,27.2160608 C269.40594,26.6367501 269.285349,25.9803956 269.851732,24.8563452 C270.131958,24.2997526 270.120096,23.1722451 269.823561,22.0526396 C269.545806,20.9932863 269.046144,20.0524621 268.413535,19.4035156 C268.401179,19.3901811 268.387341,19.3788221 268.373997,19.3674631 C268.233637,19.2597992 267.728538,18.9165588 267.146834,19.0187901 C266.766775,19.0854627 266.447999,19.3185698 266.197427,19.7111973 C266.159865,19.7709557 266.139602,19.8396037 266.139602,19.9102273 L266.135648,22.5598451 C266.100558,22.8996284 265.975025,23.5905539 265.722476,24.0296052 C265.532199,24.3619803 264.633696,25.8198875 263.794007,27.1083969 C263.005717,28.3178869 262.712641,28.6912534 262.606382,28.807807 C262.261907,29.190557 261.555164,29.2295728 261.164232,29.2147567 C260.970495,29.2137689 260.788126,29.3688444 260.781701,29.573307 C260.775276,29.7777696 260.936394,29.9486489 261.141003,29.9555631 C261.774106,29.9743302 262.639496,29.8780254 263.15695,29.3046412 C263.368973,29.0715341 263.79203,28.4685176 264.415249,27.5123834 C265.20601,26.2979546 266.14405,24.7852278 266.366452,24.3980329 C266.744535,23.739209 266.854747,22.8136948 266.864631,22.6833129 C266.878964,22.6240483 266.880941,22.5707103 266.880941,22.5302129 L266.880941,20.0248053 C267.000543,19.8642973 267.130525,19.7739189 267.274839,19.7482376 C267.542215,19.7018137 267.821947,19.8830644 267.902505,19.9403534 C268.437258,20.4989215 268.863774,21.3143025 269.106934,22.2412983 C269.381723,23.2818845 269.355035,24.1940642 269.189963,24.5234762 C268.511886,25.8692746 268.668555,26.7246591 268.782227,27.3494059 C268.861798,27.7820369 269.374804,28.0215644 269.698522,28.0215644 L272.985123,28.0215644 C273.151183,28.0215644 273.484785,28.0709515 273.681981,28.2576347 C273.808009,28.3756698 273.869293,28.5579082 273.869293,28.8142273 C273.869293,29.3411876 273.476878,29.5337973 273.003409,29.715048 L272.910989,29.7515944 C272.809673,29.7920918 272.499793,29.9155596 272.521045,30.2271922 C272.543285,30.5408003 272.834384,30.6124115 273.115599,30.6810596 C273.292037,30.7245203 273.511473,30.7783522 273.710152,30.8662612 C273.967149,30.9813332 274.307671,31.5196525 274.252812,32.0273519 C274.183126,32.6550619 273.541127,32.9148381 273.013788,33.0229958 C272.682163,33.0921378 272.560583,33.3079594 272.556135,33.4862468 C272.553664,33.6284817 272.613959,33.883813 273.059751,33.9974033 C273.143275,34.021603 273.404226,34.2863178 273.419547,34.6354846 C273.439811,35.1096007 272.972767,35.392095 272.573927,35.5466766 C272.54971,35.556554 272.52747,35.5634682 272.506218,35.5698885 C272.386616,35.6084104 272.136537,35.6884175 272.066357,36.0153601 C271.989258,36.3546495 272.287276,36.5230595 272.39996,36.586275 C272.578869,36.6875185 272.764698,36.7922192 272.764698,37.2846086 C272.764698,37.4456105 272.721206,37.6026615 272.633728,37.7518105 C272.545262,37.9034289 272.319401,38.0708512 272.196833,38.1612296 C271.973443,38.3276641 271.470815,38.5360776 271.219254,38.5889218 L271.168349,38.599787 C269.545312,38.9301867 267.51948,39.3410874 264.488394,39.2986145 C262.898964,39.2744148 262.011829,38.8126454 261.585806,38.5913912 C261.336222,38.4615031 261.15583,38.3686554 260.947761,38.4753315 C260.771322,38.5642283 260.714981,38.768197 260.794551,38.9489538 C260.872144,39.1223025 261.085156,39.2023096 261.265548,39.143539 C261.179058,39.1820609 261.099488,39.1731712 261.068846,39.1623061 C261.109373,39.1766283 261.166209,39.2082361 261.243308,39.2482396 C261.720236,39.4961628 262.713135,40.012258 264.477027,40.0394209 C264.628754,40.0413964 264.776528,40.0423842 264.922818,40.0423842 C267.793776,40.0423842 269.739542,39.6467935 271.316617,39.3252835 L271.369993,39.3144183 C271.711997,39.2418193 272.318412,38.9943899 272.638671,38.7558502 C272.866509,38.5879341 273.121529,38.3864347 273.274739,38.1246831 C273.428443,37.860956 273.506531,37.5779679 273.506531,37.2846086 C273.506531,36.6672698 273.283141,36.3358824 273.062222,36.1432727 C274.0655,35.6726137 274.183126,34.9698353 274.158415,34.5772078 C274.13568,34.2107556 273.964184,33.8413401 273.725967,33.5874904 C274.711453,33.2106668 274.94374,32.5227045 274.989208,32.1083468 C275.082123,31.2633335 274.559726,30.4341241 274.012124,30.189658 L274.012124,30.189658 Z" id="icon_dislike" transform="translate(264.000000, 30.000000) scale(1, -1) translate(-264.000000, -30.000000) "></path>
                            </g>
                        </g>
                    </g>
                </g>
            </g>
        </g>
    </g>
</svg>