<?xml version="1.0" encoding="UTF-8"?>
<svg width="22px" height="22px" viewBox="0 0 22 22" version="1.1" xmlns="http://www.w3.org/2000/svg" xmlns:xlink="http://www.w3.org/1999/xlink">
    <!-- Generator: Sketch 43.1 (39012) - http://www.bohemiancoding.com/sketch -->
    <title>icon_like</title>
    <desc>Created with Sketch.</desc>
    <defs></defs>
    <g id="Symbols" stroke="none" stroke-width="1" fill="none" fill-rule="evenodd">
        <g id="Player_Desktop" transform="translate(-213.000000, -39.000000)" fill="#FFFFFF">
            <g id="Group-8" transform="translate(0.000000, 16.000000)">
                <g id="Group-5">
                    <g id="Player-Copy-2" transform="translate(0.000000, 4.000000)">
                        <g id="Player">
                            <g id="Player-Copy">
                                <path d="M219.285185,27.9045169 L214.978997,27.9064924 C214.978997,27.9064924 214.918207,27.9000721 214.818373,27.9000721 C214.498115,27.9000721 213.894665,27.9687202 213.458264,28.4314773 C213.121202,28.7895337 212.967992,29.293776 213.005553,29.9298818 C213.110823,31.7216458 213.606037,38.7395525 213.609497,38.7844948 C213.609497,39.5504887 214.072587,41 215.825605,41 L219.441361,40.9995061 C219.44828,41 219.464589,41 219.47052,41 C219.855522,41 220.5079,40.7426932 220.5079,39.7771754 L220.5079,29.485398 C220.542002,29.309086 220.61663,28.7485424 220.287475,28.3297398 C220.134265,28.1356486 219.836741,27.9045169 219.285185,27.9045169 L219.285185,27.9045169 Z M219.77694,29.358967 C219.770021,29.3871176 219.766561,29.4167499 219.766561,29.4458883 L219.766561,39.7771754 C219.766561,40.195978 219.580732,40.2591935 219.47052,40.2591935 L219.47052,40.6295968 L219.460636,40.2591935 L215.825605,40.2591935 C214.405201,40.2591935 214.352318,38.9336438 214.350341,38.7583196 C214.345399,38.687696 213.851173,31.6742342 213.746398,29.8864212 C213.721192,29.4616921 213.806199,29.1431454 213.997958,28.9396705 C214.251991,28.6695231 214.656267,28.6408786 214.818373,28.6408786 C214.86483,28.6408786 214.894978,28.6433479 214.939459,28.6453234 L219.285185,28.6453234 C219.488806,28.6453234 219.628672,28.692735 219.703795,28.7865705 C219.833282,28.9495479 219.79918,29.263156 219.77694,29.358967 L219.77694,29.358967 Z M234.012124,30.189658 C233.961219,30.1669399 233.909325,30.1466912 233.857926,30.1269364 C234.235514,29.8903722 234.610631,29.4952754 234.610631,28.8142273 C234.610631,28.3490008 234.469283,27.9800792 234.190045,27.7183276 C233.760563,27.3118717 233.15909,27.2807579 232.985123,27.2807579 L229.698522,27.2807579 C229.644651,27.2807579 229.52752,27.2219872 229.51121,27.2160608 C229.40594,26.6367501 229.285349,25.9803956 229.851732,24.8563452 C230.131958,24.2997526 230.120096,23.1722451 229.823561,22.0526396 C229.545806,20.9932863 229.046144,20.0524621 228.413535,19.4035156 C228.401179,19.3901811 228.387341,19.3788221 228.373997,19.3674631 C228.233637,19.2597992 227.728538,18.9165588 227.146834,19.0187901 C226.766775,19.0854627 226.447999,19.3185698 226.197427,19.7111973 C226.159865,19.7709557 226.139602,19.8396037 226.139602,19.9102273 L226.135648,22.5598451 C226.100558,22.8996284 225.975025,23.5905539 225.722476,24.0296052 C225.532199,24.3619803 224.633696,25.8198875 223.794007,27.1083969 C223.005717,28.3178869 222.712641,28.6912534 222.606382,28.807807 C222.261907,29.190557 221.555164,29.2295728 221.164232,29.2147567 C220.970495,29.2137689 220.788126,29.3688444 220.781701,29.573307 C220.775276,29.7777696 220.936394,29.9486489 221.141003,29.9555631 C221.774106,29.9743302 222.639496,29.8780254 223.15695,29.3046412 C223.368973,29.0715341 223.79203,28.4685176 224.415249,27.5123834 C225.20601,26.2979546 226.14405,24.7852278 226.366452,24.3980329 C226.744535,23.739209 226.854747,22.8136948 226.864631,22.6833129 C226.878964,22.6240483 226.880941,22.5707103 226.880941,22.5302129 L226.880941,20.0248053 C227.000543,19.8642973 227.130525,19.7739189 227.274839,19.7482376 C227.542215,19.7018137 227.821947,19.8830644 227.902505,19.9403534 C228.437258,20.4989215 228.863774,21.3143025 229.106934,22.2412983 C229.381723,23.2818845 229.355035,24.1940642 229.189963,24.5234762 C228.511886,25.8692746 228.668555,26.7246591 228.782227,27.3494059 C228.861798,27.7820369 229.374804,28.0215644 229.698522,28.0215644 L232.985123,28.0215644 C233.151183,28.0215644 233.484785,28.0709515 233.681981,28.2576347 C233.808009,28.3756698 233.869293,28.5579082 233.869293,28.8142273 C233.869293,29.3411876 233.476878,29.5337973 233.003409,29.715048 L232.910989,29.7515944 C232.809673,29.7920918 232.499793,29.9155596 232.521045,30.2271922 C232.543285,30.5408003 232.834384,30.6124115 233.115599,30.6810596 C233.292037,30.7245203 233.511473,30.7783522 233.710152,30.8662612 C233.967149,30.9813332 234.307671,31.5196525 234.252812,32.0273519 C234.183126,32.6550619 233.541127,32.9148381 233.013788,33.0229958 C232.682163,33.0921378 232.560583,33.3079594 232.556135,33.4862468 C232.553664,33.6284817 232.613959,33.883813 233.059751,33.9974033 C233.143275,34.021603 233.404226,34.2863178 233.419547,34.6354846 C233.439811,35.1096007 232.972767,35.392095 232.573927,35.5466766 C232.54971,35.556554 232.52747,35.5634682 232.506218,35.5698885 C232.386616,35.6084104 232.136537,35.6884175 232.066357,36.0153601 C231.989258,36.3546495 232.287276,36.5230595 232.39996,36.586275 C232.578869,36.6875185 232.764698,36.7922192 232.764698,37.2846086 C232.764698,37.4456105 232.721206,37.6026615 232.633728,37.7518105 C232.545262,37.9034289 232.319401,38.0708512 232.196833,38.1612296 C231.973443,38.3276641 231.470815,38.5360776 231.219254,38.5889218 L231.168349,38.599787 C229.545312,38.9301867 227.51948,39.3410874 224.488394,39.2986145 C222.898964,39.2744148 222.011829,38.8126454 221.585806,38.5913912 C221.336222,38.4615031 221.15583,38.3686554 220.947761,38.4753315 C220.771322,38.5642283 220.714981,38.768197 220.794551,38.9489538 C220.872144,39.1223025 221.085156,39.2023096 221.265548,39.143539 C221.179058,39.1820609 221.099488,39.1731712 221.068846,39.1623061 C221.109373,39.1766283 221.166209,39.2082361 221.243308,39.2482396 C221.720236,39.4961628 222.713135,40.012258 224.477027,40.0394209 C224.628754,40.0413964 224.776528,40.0423842 224.922818,40.0423842 C227.793776,40.0423842 229.739542,39.6467935 231.316617,39.3252835 L231.369993,39.3144183 C231.711997,39.2418193 232.318412,38.9943899 232.638671,38.7558502 C232.866509,38.5879341 233.121529,38.3864347 233.274739,38.1246831 C233.428443,37.860956 233.506531,37.5779679 233.506531,37.2846086 C233.506531,36.6672698 233.283141,36.3358824 233.062222,36.1432727 C234.0655,35.6726137 234.183126,34.9698353 234.158415,34.5772078 C234.13568,34.2107556 233.964184,33.8413401 233.725967,33.5874904 C234.711453,33.2106668 234.94374,32.5227045 234.989208,32.1083468 C235.082123,31.2633335 234.559726,30.4341241 234.012124,30.189658 L234.012124,30.189658 Z" id="icon_like"></path>
                            </g>
                        </g>
                    </g>
                </g>
            </g>
        </g>
    </g>
</svg>